<?xml version="1.0" standalone="no"?>
<!DOCTYPE svg PUBLIC "-//W3C//DTD SVG 20010904//EN"
 "http://www.w3.org/TR/2001/REC-SVG-20010904/DTD/svg10.dtd">
<svg version="1.0" xmlns="http://www.w3.org/2000/svg"
 width="500.000000pt" height="482.000000pt" viewBox="0 0 500.000000 482.000000"
 preserveAspectRatio="xMidYMid meet">

<g transform="translate(0.000000,482.000000) scale(0.100000,-0.100000)"
fill="#000000" stroke="none">
<path d="M2492 4609 c-28 -62 -683 -1454 -685 -1455 -2 -2 -451 -53 -1217
-139 -223 -25 -411 -47 -419 -48 -7 -1 259 -258 592 -570 333 -313 604 -574
602 -580 -12 -36 -326 -1599 -322 -1603 2 -2 329 174 726 392 l721 396 717
-406 c394 -223 718 -404 720 -402 3 2 -63 359 -146 793 -83 433 -152 797 -153
808 -2 16 137 149 602 575 333 304 606 556 608 560 1 3 -93 18 -210 33 -117
15 -409 52 -648 82 -239 30 -512 65 -607 77 l-172 22 -337 740 c-185 408 -340
747 -344 755 -5 10 -13 2 -28 -30z m-206 -1569 c104 -22 199 -43 212 -45 58
-14 25 -44 -348 -317 -200 -147 -367 -264 -371 -260 -29 32 -209 287 -207 293
6 14 493 368 509 368 9 1 101 -17 205 -39z m773 -123 c220 -90 367 -253 422
-464 20 -80 27 -251 13 -331 -21 -125 -81 -257 -162 -358 -50 -61 -193 -184
-215 -184 -6 1 -30 24 -51 52 -35 45 -37 51 -22 60 39 22 139 113 177 160 110
139 169 366 125 473 -27 64 -41 47 -81 -96 -48 -174 -136 -314 -269 -429 -36
-32 -39 -33 -52 -16 -12 17 -7 25 48 80 167 169 258 375 244 554 -13 160 -93
318 -232 460 -76 77 -80 83 -51 77 18 -4 65 -21 106 -38z m-601 -564 c608
-751 878 -1097 926 -1187 17 -32 26 -65 26 -94 0 -42 -4 -50 -49 -93 -52 -50
-98 -67 -146 -55 -69 18 -109 71 -727 975 l-406 595 76 57 c43 32 80 58 84 58
4 1 101 -115 216 -256z m-123 -578 c68 -44 175 -84 221 -85 43 0 62 -18 144
-140 81 -120 82 -118 -38 -119 -159 -2 -370 71 -469 162 -13 11 -30 17 -42 14
-14 -3 -38 11 -83 49 -35 29 -63 57 -63 62 0 4 34 53 75 109 l75 101 60 -58
c33 -31 87 -75 120 -95z m-317 -188 c34 -27 62 -51 62 -53 0 -3 -7 -16 -16
-29 l-16 -24 -73 57 c-41 31 -74 61 -75 66 0 17 32 46 44 39 6 -4 39 -29 74
-56z m-66 -137 c26 -19 47 -38 48 -43 0 -14 -201 -321 -233 -356 -35 -37 -99
-70 -135 -71 -38 0 -92 30 -107 61 -23 43 -19 117 8 167 13 24 85 108 161 188
l138 144 37 -27 c20 -16 58 -44 83 -63z"/>
</g>
</svg>
